HIERARCHY
ROOT Hips
{
 OFFSET 0.000000 0.000000 0.000000
 CHANNELS 6 Xposition Yposition Zposition Yrotation Xrotation Zrotation
 JOINT Chest
 {
  OFFSET 0.000000 9.585900 0.002600
  CHANNELS 3 Yrotation Xrotation Zrotation
  JOINT Chest2
  {
   OFFSET 0.000000 9.601200 -0.005300
   CHANNELS 3 Yrotation Xrotation Zrotation
   JOINT Chest3
   {
    OFFSET 0.000000 9.561800 0.000000
    CHANNELS 3 Yrotation Xrotation Zrotation
    JOINT Chest4
    {
     OFFSET 0.000000 9.552100 0.000000
     CHANNELS 3 Yrotation Xrotation Zrotation
     JOINT Neck
     {
      OFFSET 0.000000 14.453000 0.000000
      CHANNELS 3 Yrotation Xrotation Zrotation
      JOINT Head
      {
       OFFSET 0.000000 8.936500 -0.011300
       CHANNELS 3 Yrotation Xrotation Zrotation
       End Site
       {
        OFFSET 0.000000 17.073600 -0.006000
       }
      }
     }
     JOINT RightCollar
     {
      OFFSET -2.921100 9.558500 0.000000
      CHANNELS 3 Yrotation Xrotation Zrotation
      JOINT RightShoulder
      {
       OFFSET -13.519700 0.000000 0.000000
       CHANNELS 3 Yrotation Xrotation Zrotation
       JOINT RightElbow
       {
        OFFSET 0.000000 -29.696600 0.000000
        CHANNELS 3 Yrotation Xrotation Zrotation
        JOINT RightWrist
        {
         OFFSET 0.000000 -24.004700 0.000000
         CHANNELS 3 Yrotation Xrotation Zrotation
         End Site
         {
          OFFSET 0.000000 -17.728500 0.000000
         }
        }
       }
      }
     }
     JOINT LeftCollar
     {
      OFFSET 2.921100 9.558500 0.000000
      CHANNELS 3 Yrotation Xrotation Zrotation
      JOINT LeftShoulder
      {
       OFFSET 13.519700 0.000000 0.000000
       CHANNELS 3 Yrotation Xrotation Zrotation
       JOINT LeftElbow
       {
        OFFSET 0.000000 -29.696600 0.000000
        CHANNELS 3 Yrotation Xrotation Zrotation
        JOINT LeftWrist
        {
         OFFSET 0.000000 -24.004700 0.000000
         CHANNELS 3 Yrotation Xrotation Zrotation
         End Site
         {
          OFFSET 0.000000 -17.728500 0.000000
         }
        }
       }
      }
     }
    }
   }
  }
 }
 JOINT RightHip
 {
  OFFSET -7.771700 -0.012900 -0.001300
  CHANNELS 3 Yrotation Xrotation Zrotation
  JOINT RightKnee
  {
   OFFSET 0.000000 -40.869800 0.001200
   CHANNELS 3 Yrotation Xrotation Zrotation
   JOINT RightAnkle
   {
    OFFSET 0.000000 -39.717900 0.002100
    CHANNELS 3 Yrotation Xrotation Zrotation
    JOINT RightToe
    {
     OFFSET 0.000000 -4.965400 11.033500
     CHANNELS 3 Yrotation Xrotation Zrotation
     End Site
     {
      OFFSET 0.000000 -1.423100 5.872300
     }
    }
   }
  }
 }
 JOINT LeftHip
 {
  OFFSET 7.771700 -0.012900 -0.001300
  CHANNELS 3 Yrotation Xrotation Zrotation
  JOINT LeftKnee
  {
   OFFSET 0.000000 -40.869800 0.001200
   CHANNELS 3 Yrotation Xrotation Zrotation
   JOINT LeftAnkle
   {
    OFFSET 0.000000 -39.717900 0.002100
    CHANNELS 3 Yrotation Xrotation Zrotation
    JOINT LeftToe
    {
     OFFSET 0.000000 -4.965400 11.033500
     CHANNELS 3 Yrotation Xrotation Zrotation
     End Site
     {
      OFFSET 0.000000 -1.423100 5.872300
     }
    }
   }
  }
 }
}
MOTION
Frames: 8
Frame Time: 0.008333
0.000000 85.388000 0.000000 0.000000 -5.767877 0.000000 0.000000 11.653817 0.000000 0.000000 -5.885947 0.000000 0.000000 -0.000000 0.000000 0.000000 -0.000000 0.000000 0.000000 12.528835 0.000000 0.000000 0.711642 0.000000 0.000000 -0.000000 0.000000 0.000000 0.000000 -90.000000 0.000000 -2.309062 0.000000 0.000000 2.309062 0.000000 0.000000 -0.000000 0.000000 0.000000 -0.000000 90.000000 0.000000 -2.309062 0.000000 0.000000 2.309062 0.000000 0.000000 8.520406 0.000000 0.000000 1.905762 0.000000 -0.000000 -4.658285 0.000000 0.000000 -0.000000 0.000000 0.000000 8.520406 0.000000 0.000000 1.905762 0.000000 -0.000000 -4.658285 0.000000 0.000000 -0.000000 0.000000
-46.376707 61.989876 12.978592 179.333932 -47.426342 -0.891149 4.501451 26.560387 -0.563593 0.695173 4.399746 -0.125736 1.108886 6.997603 -0.177230 3.493829 21.485515 -0.187918 9.453145 16.167176 6.517334 15.243653 -5.932436 8.753815 7.401794 6.530514 7.474172 -4.391231 -13.229297 -14.566511 -100.023690 -60.740006 136.834490 17.776319 5.929284 13.434600 -10.146415 3.328658 -0.604848 -10.706621 -11.457031 21.345923 102.549781 -69.221587 -130.363567 8.097602 -0.641435 -3.753267 3.799398 -19.094878 -7.759541 1.568267 63.419363 -3.282123 0.908943 -11.253621 10.867956 0.031259 -0.132850 0.036643 -1.491045 -8.703206 5.600770 130.475944 83.745222 138.893411 -5.142752 -16.513372 -9.660545 0.364746 -22.254896 -1.016425
-46.375683 61.995417 12.977903 179.295977 -47.492572 -0.861044 4.479769 26.580909 -0.536084 0.677782 4.385918 -0.103006 1.108948 7.005746 -0.181149 3.467691 21.483130 -0.160940 9.645761 16.316055 6.611645 15.567142 -5.661080 8.871618 7.384292 6.690556 7.496714 -4.360935 -13.258524 -14.623632 -100.234202 -60.834288 137.047680 17.926409 6.065969 13.783776 -10.110180 3.489268 -0.594826 -10.564256 -11.546158 21.290529 103.025332 -69.463130 -130.789318 7.917462 -0.439442 -4.284657 3.827032 -19.024945 -7.753783 1.580634 63.411945 -3.271049 0.902666 -11.253358 10.865038 0.032662 -0.136598 0.035671 -1.466754 -8.629001 5.595649 130.400371 83.751685 138.814532 -5.139997 -16.496859 -9.658323 0.361412 -22.267978 -1.020234
-46.373925 61.996703 12.981699 179.275806 -47.527710 -0.845435 4.445340 26.571164 -0.505350 0.659472 4.374214 -0.080472 1.108323 7.014296 -0.185841 3.439630 21.481530 -0.132787 9.831256 16.466369 6.705293 15.877564 -5.387169 8.991481 7.376698 6.849533 7.523108 -4.333938 -13.283639 -14.688937 -100.452337 -60.948778 137.194768 17.980010 6.157774 14.150290 -10.073087 3.649071 -0.591390 -10.439099 -11.631321 21.239514 103.470805 -69.696247 -131.166286 7.753899 -0.260611 -4.762296 3.845697 -18.990684 -7.747183 1.570909 63.406744 -3.279281 0.900586 -11.248162 10.864922 0.036311 -0.145410 0.030540 -1.453495 -8.592805 5.593711 130.379950 83.756498 138.794196 -5.135442 -16.492533 -9.657921 0.361435 -22.268123 -1.023561
-46.371905 61.996480 12.987178 179.255165 -47.553612 -0.827880 4.374268 26.525992 -0.449572 0.692539 4.413999 -0.128429 1.113384 7.023219 -0.197181 3.400642 21.458596 -0.059551 10.007087 16.618056 6.796372 16.170736 -5.110819 9.110617 7.378479 7.006856 7.550840 -4.307736 -13.305375 -14.764338 -100.473941 -60.985079 137.215743 18.058054 6.244697 14.409170 -10.035852 3.801641 -0.593896 -10.327212 -11.707022 21.191147 103.884261 -69.912472 -131.506692 7.618795 -0.097678 -5.175746 3.861368 -18.968674 -7.742210 1.586733 63.402770 -3.267281 0.889792 -11.240386 10.866402 0.035579 -0.146268 0.028192 -1.444061 -8.564107 5.594905 130.323850 83.762279 138.732591 -5.139111 -16.501077 -9.659199 0.363676 -22.253847 -1.022699
-46.370416 61.995628 12.993253 179.239255 -47.576952 -0.807838 4.322286 26.501289 -0.410661 0.696310 4.423527 -0.135045 1.089124 7.011820 -0.166702 3.377197 21.473450 -0.049399 10.167231 16.769151 6.884507 16.435842 -4.835726 9.230198 7.384223 7.163639 7.576890 -4.279542 -13.321025 -14.845256 -100.414952 -60.978990 137.184198 18.105621 6.328342 14.579966 -10.007933 3.949756 -0.599924 -10.229651 -11.772786 21.143838 104.246311 -70.101250 -131.800393 7.518064 0.048038 -5.517500 3.877187 -18.950620 -7.740853 1.573238 63.401545 -3.286166 0.887682 -11.230234 10.873170 0.034526 -0.153728 0.023013 -1.432644 -8.541779 5.587624 130.248700 83.764005 138.656489 -5.142090 -16.502885 -9.660007 0.364302 -22.244274 -1.023799
-46.369201 61.996727 12.997403 179.220138 -47.618179 -0.781616 4.291473 26.504165 -0.376755 0.678802 4.414225 -0.110558 1.076578 7.012490 -0.151410 3.355487 21.488145 -0.036400 10.308211 16.916259 6.970423 16.666249 -4.568267 9.352187 7.387582 7.322476 7.602618 -4.251412 -13.330164 -14.927737 -100.293252 -60.946551 137.097436 18.124520 6.393774 14.683132 -9.994683 4.100554 -0.608076 -10.151634 -11.830573 21.098729 104.519667 -70.257245 -132.018258 7.450599 0.166274 -5.786074 3.896031 -18.912728 -7.742372 1.559815 63.400745 -3.304601 0.884541 -11.220975 10.878361 0.042581 -0.160683 0.021583 -1.419921 -8.497353 5.579477 130.141228 83.768680 138.541715 -5.144815 -16.504861 -9.663276 0.358866 -22.233590 -1.019436
-46.365909 61.998051 13.001164 179.199665 -47.662980 -0.765680 4.274231 26.509309 -0.323170 0.672903 4.414970 -0.102259 1.081084 7.033300 -0.183717 3.336959 21.469690 0.050818 10.432293 17.056006 7.053530 16.866425 -4.314533 9.474325 7.386270 7.483942 7.628181 -4.222194 -13.334239 -15.008411 -100.128736 -60.901043 136.974499 18.120038 6.435281 14.729369 -9.991206 4.256672 -0.619285 -10.095394 -11.880515 21.057152 104.685874 -70.374983 -132.146790 7.409191 0.255405 -5.988946 3.912910 -18.869859 -7.731906 1.534029 63.396034 -3.330024 0.886441 -11.212456 10.881438 0.039955 -0.164175 0.018909 -1.410553 -8.448746 5.583236 130.125567 83.776184 138.518812 -5.141398 -16.509034 -9.663412 0.363336 -22.225384 -1.022060
